<?xml version="1.0" encoding="utf-8"?>
<!-- Generator: Adobe Illustrator 17.0.0, SVG Export Plug-In . SVG Version: 6.00 Build 0)  -->
<!DOCTYPE svg PUBLIC "-//W3C//DTD SVG 1.1//EN" "http://www.w3.org/Graphics/SVG/1.1/DTD/svg11.dtd">
<svg version="1.1" xmlns="http://www.w3.org/2000/svg" xmlns:xlink="http://www.w3.org/1999/xlink" x="0px" y="0px" width="1200px"
	 height="800px" viewBox="0 0 1200 800" enable-background="new 0 0 1200 800" xml:space="preserve">
<g id="BG" display="none">
	<path display="inline" fill="#065C59" d="M1,1v800h1200V1H1z M1109,719c0,8.837-7.163,16-16,16H106c-8.836,0-16-7.163-16-16V86
		c0-8.836,7.164-16,16-16h987c8.837,0,16,7.164,16,16V719z"/>
</g>
<g id="Gumbi" display="none">
	<g display="inline">
		<g>
			<path fill="#A14500" d="M1100,592h-46c-8.837,0-16,7.163-16,16v21c0,8.837,7.163,16,16,16h46V592z"/>
		</g>
		<g id="_x39__3_">
			<g>
				<path fill="#6FFF00" d="M1083.504,606.469c-1.595-1.627-4.182-1.627-5.774,0l-14.438,14.727l-3.608-3.683
					c-1.596-1.627-4.182-1.627-5.774,0c-1.596,1.626-1.596,4.265,0,5.891l6.496,6.627c1.597,1.627,4.182,1.627,5.774,0
					l17.326-17.671C1085.1,610.733,1085.1,608.096,1083.504,606.469z M1082.062,610.887c0,0-17.059,17.396-17.326,17.671
					c-0.798,0.813-2.09,0.813-2.888,0c0,0-6.538-6.669-6.559-6.689c-0.735-0.816-0.718-2.089,0.062-2.881
					c0.797-0.813,2.09-0.813,2.888,0l5.054,5.153l15.883-16.198c0.798-0.813,2.091-0.813,2.889,0
					C1082.858,608.755,1082.858,610.073,1082.062,610.887z"/>
			</g>
		</g>
	</g>
	<g display="inline">
		<g>
			<path fill="#A14500" d="M1100,652h-46c-8.837,0-16,7.163-16,16v21c0,8.837,7.163,16,16,16h46V652z"/>
		</g>
		<g id="_x38__3_">
			<g>
				<path fill="#FF4200" d="M1074.371,678.25l5.664-5.664c1.563-1.563,1.563-4.1,0-5.664c-1.563-1.563-4.102-1.563-5.664,0
					l-5.664,5.664l-5.664-5.664c-1.563-1.563-4.101-1.563-5.664,0c-1.563,1.564-1.563,4.101,0,5.664l5.664,5.664l-5.664,5.664
					c-1.563,1.563-1.563,4.1,0,5.663c1.563,1.564,4.102,1.564,5.664,0l5.664-5.663l5.664,5.663c1.563,1.564,4.101,1.564,5.664,0
					c1.563-1.563,1.563-4.1,0-5.663L1074.371,678.25z M1078.619,688.162c-0.782,0.781-2.051,0.781-2.832,0l-7.08-7.08l-7.08,7.08
					c-0.782,0.781-2.051,0.781-2.832,0c-0.782-0.782-0.782-2.051,0-2.832l7.08-7.08l-7.08-7.08c-0.782-0.781-0.782-2.051,0-2.832
					c0.781-0.781,2.05-0.781,2.832,0l7.08,7.08l7.08-7.08c0.781-0.781,2.05-0.781,2.832,0c0.781,0.781,0.781,2.051,0,2.832
					l-7.08,7.08l7.08,7.08C1079.401,686.112,1079.401,687.38,1078.619,688.162z"/>
			</g>
		</g>
	</g>
	<g display="inline">
		<g>
			<path fill="#A14500" d="M1100,156h-46c-8.837,0-16,7.163-16,16v21c0,8.837,7.163,16,16,16h46V156z"/>
		</g>
		<path fill="#FFFF00" d="M1087.654,181.093l-16.986-12.189c-1.125-0.604-2.416-0.747-2.416,1.579l-0.001,8.011h-13.035
			c-2.211,0-4.004,1.793-4.005,4.006c0.001,2.211,1.793,4.004,4.005,4.004h13.035l-0.001,4.582l0.002,0.002v3.431
			c0,1.982,1.385,2.309,2.416,1.642l16.986-12.188C1088.367,183.46,1088.402,181.605,1087.654,181.093z M1070.254,193.732
			c0-0.091,0-0.463,0-1c0,0,0-3.348,0-7.4c0-0.273,0-0.551,0-0.83h-1.027h-0.976h-13.035c-1.105,0-2.002-0.896-2.002-2.002
			s0.896-2.002,2.002-2.002h13.035h0.976h1.027c0-4.363,0-8.4,0-9.166l16.016,11.2L1070.254,193.732z"/>
	</g>
	<g display="inline">
		<g>
			<path fill="#A14500" d="M1100,94h-46c-8.837,0-16,7.163-16,16v21c0,8.837,7.163,16,16,16h46V94z"/>
		</g>
		<g>
			<path fill="#00A9FF" d="M1083.617,115.545l-10.299-10.189c-1.393-1.393-3.824-1.388-5.212-0.005l-10.396,10.295
				c-0.021,0.02-0.042,0.039-0.06,0.062c-0.978,0.856-1.535,2.069-1.535,3.363v13.126c0,2.479,2.016,4.491,4.493,4.491h20.194
				c2.476,0,4.494-2.013,4.494-4.491V119.07c0-1.145-0.445-2.242-1.236-3.072C1083.958,115.809,1083.803,115.651,1083.617,115.545z
				 M1082.988,132.196c0,1.206-0.98,2.186-2.186,2.186h-13.048c0.085-0.162,0.208-0.308,0.208-0.504v-7.155
				c0-0.639-0.517-1.156-1.153-1.156c-0.638,0-1.154,0.518-1.154,1.156v7.155c0,0.196,0.122,0.342,0.209,0.504h-5.256
				c-1.204,0-2.185-0.98-2.185-2.186V119.07c0-0.661,0.305-1.279,0.836-1.703c0.083-0.065,0.155-0.143,0.214-0.225l10.26-10.155
				c0.523-0.518,1.435-0.521,1.958,0.004l10.35,10.24c0.052,0.071,0.114,0.136,0.182,0.194c0.492,0.426,0.766,1.007,0.766,1.645
				V132.196z M1075.173,134.382c0.085-0.162,0.208-0.308,0.208-0.504v-7.155c0-0.639-0.517-1.156-1.153-1.156
				c-0.639,0-1.155,0.518-1.155,1.156v7.155c0,0.196,0.123,0.342,0.209,0.504h-5.255 M1080.803,134.382h-13.048 M1075.173,134.382
				c0.085-0.162,0.208-0.308,0.208-0.504v-7.155c0-0.639-0.517-1.156-1.153-1.156c-0.639,0-1.155,0.518-1.155,1.156v7.155
				c0,0.196,0.123,0.342,0.209,0.504h-5.255"/>
			<path fill="#00A9FF" d="M1074.191,125.472h-7.154c-0.64,0-1.156,0.517-1.156,1.154c0,0.637,0.517,1.154,1.156,1.154h7.154"/>
			<path fill="#00A9FF" d="M1067.015,127.78h7.153c0.641,0,1.157-0.518,1.157-1.154c0-0.638-0.517-1.154-1.157-1.154h-7.153"/>
		</g>
	</g>
</g>
<g id="HOVER" display="none">
	<g display="inline">
		<g>
			<path fill="#6FFF00" d="M1100,592h-46c-8.837,0-16,7.163-16,16v21c0,8.837,7.163,16,16,16h46V592z"/>
		</g>
		<g id="_x39__1_">
			<g>
				<path fill="#A14500" d="M1083.504,606.469c-1.595-1.627-4.182-1.627-5.774,0l-14.438,14.727l-3.608-3.683
					c-1.596-1.627-4.182-1.627-5.774,0c-1.596,1.626-1.596,4.265,0,5.891l6.496,6.627c1.597,1.627,4.182,1.627,5.774,0
					l17.326-17.671C1085.1,610.733,1085.1,608.096,1083.504,606.469z M1082.062,610.887c0,0-17.059,17.396-17.326,17.671
					c-0.798,0.813-2.09,0.813-2.888,0c0,0-6.538-6.669-6.559-6.689c-0.735-0.816-0.718-2.089,0.062-2.881
					c0.797-0.813,2.09-0.813,2.888,0l5.054,5.153l15.883-16.198c0.798-0.813,2.091-0.813,2.889,0
					C1082.858,608.755,1082.858,610.073,1082.062,610.887z"/>
			</g>
		</g>
	</g>
	<g display="inline">
		<g>
			<path fill="#FF4200" d="M1100,652h-46c-8.837,0-16,7.163-16,16v21c0,8.837,7.163,16,16,16h46V652z"/>
		</g>
		<g id="_x38__1_">
			<g>
				<path fill="#A14500" d="M1074.371,678.25l5.664-5.664c1.563-1.563,1.563-4.1,0-5.664c-1.563-1.563-4.102-1.563-5.664,0
					l-5.664,5.664l-5.664-5.664c-1.563-1.563-4.101-1.563-5.664,0c-1.563,1.564-1.563,4.101,0,5.664l5.664,5.664l-5.664,5.664
					c-1.563,1.563-1.563,4.1,0,5.663c1.563,1.564,4.102,1.564,5.664,0l5.664-5.663l5.664,5.663c1.563,1.564,4.101,1.564,5.664,0
					c1.563-1.563,1.563-4.1,0-5.663L1074.371,678.25z M1078.619,688.162c-0.782,0.781-2.051,0.781-2.832,0l-7.08-7.08l-7.08,7.08
					c-0.782,0.781-2.051,0.781-2.832,0c-0.782-0.782-0.782-2.051,0-2.832l7.08-7.08l-7.08-7.08c-0.782-0.781-0.782-2.051,0-2.832
					c0.781-0.781,2.05-0.781,2.832,0l7.08,7.08l7.08-7.08c0.781-0.781,2.05-0.781,2.832,0c0.781,0.781,0.781,2.051,0,2.832
					l-7.08,7.08l7.08,7.08C1079.401,686.112,1079.401,687.38,1078.619,688.162z"/>
			</g>
		</g>
	</g>
	<g display="inline">
		<g>
			<path fill="#FFFF00" d="M1100,156h-46c-8.837,0-16,7.163-16,16v21c0,8.837,7.163,16,16,16h46V156z"/>
		</g>
		<path fill="#A14500" d="M1087.654,181.093l-16.986-12.189c-1.125-0.604-2.416-0.747-2.416,1.579l-0.001,8.011h-13.035
			c-2.211,0-4.004,1.793-4.005,4.006c0.001,2.211,1.793,4.004,4.005,4.004h13.035l-0.001,4.582l0.002,0.002v3.431
			c0,1.982,1.385,2.309,2.416,1.642l16.986-12.188C1088.367,183.46,1088.402,181.605,1087.654,181.093z M1070.254,193.732
			c0-0.091,0-0.463,0-1c0,0,0-3.348,0-7.4c0-0.273,0-0.551,0-0.83h-1.027h-0.976h-13.035c-1.105,0-2.002-0.896-2.002-2.002
			s0.896-2.002,2.002-2.002h13.035h0.976h1.027c0-4.363,0-8.4,0-9.166l16.016,11.2L1070.254,193.732z"/>
	</g>
	<g display="inline">
		<g>
			<path fill="#00A9FF" d="M1100,94h-46c-8.837,0-16,7.163-16,16v21c0,8.837,7.163,16,16,16h46V94z"/>
		</g>
		<g>
			<path fill="#A14500" d="M1083.617,115.545l-10.299-10.189c-1.393-1.393-3.824-1.388-5.212-0.005l-10.396,10.295
				c-0.021,0.02-0.042,0.039-0.06,0.062c-0.978,0.856-1.535,2.069-1.535,3.363v13.126c0,2.479,2.016,4.491,4.493,4.491h20.194
				c2.476,0,4.494-2.013,4.494-4.491V119.07c0-1.145-0.445-2.242-1.236-3.072C1083.958,115.809,1083.803,115.651,1083.617,115.545z
				 M1082.988,132.196c0,1.206-0.98,2.186-2.186,2.186h-13.048c0.085-0.162,0.208-0.308,0.208-0.504v-7.155
				c0-0.639-0.517-1.156-1.153-1.156c-0.638,0-1.154,0.518-1.154,1.156v7.155c0,0.196,0.122,0.342,0.209,0.504h-5.256
				c-1.204,0-2.185-0.98-2.185-2.186V119.07c0-0.661,0.305-1.279,0.836-1.703c0.083-0.065,0.155-0.143,0.214-0.225l10.26-10.155
				c0.523-0.518,1.435-0.521,1.958,0.004l10.35,10.24c0.052,0.071,0.114,0.136,0.182,0.194c0.492,0.426,0.766,1.007,0.766,1.645
				V132.196z M1075.173,134.382c0.085-0.162,0.208-0.308,0.208-0.504v-7.155c0-0.639-0.517-1.156-1.153-1.156
				c-0.639,0-1.155,0.518-1.155,1.156v7.155c0,0.196,0.123,0.342,0.209,0.504h-5.255 M1080.803,134.382h-13.048 M1075.173,134.382
				c0.085-0.162,0.208-0.308,0.208-0.504v-7.155c0-0.639-0.517-1.156-1.153-1.156c-0.639,0-1.155,0.518-1.155,1.156v7.155
				c0,0.196,0.123,0.342,0.209,0.504h-5.255"/>
			<path fill="#A14500" d="M1074.191,125.472h-7.154c-0.64,0-1.156,0.517-1.156,1.154c0,0.637,0.517,1.154,1.156,1.154h7.154"/>
			<path fill="#A14500" d="M1067.015,127.78h7.153c0.641,0,1.157-0.518,1.157-1.154c0-0.638-0.517-1.154-1.157-1.154h-7.153"/>
		</g>
	</g>
</g>
<g id="Frame">
	<path fill="#4F2725" d="M1085,78c8.837,0,16,7.164,16,16v618c0,8.837-7.163,16-16,16H117c-8.836,0-16-7.163-16-16V94
		c0-8.836,7.164-16,16-16H1085 M1085,64H117c-16.542,0-30,13.458-30,30v618c0,16.542,13.458,30,30,30h968c16.542,0,30-13.458,30-30
		V94C1115,77.458,1101.542,64,1085,64L1085,64z"/>
	<path fill="#A14500" d="M1083,76c8.837,0,16,7.164,16,16v618c0,8.837-7.163,16-16,16H115c-8.836,0-16-7.163-16-16V92
		c0-8.836,7.164-16,16-16H1083 M1083,62H115c-16.542,0-30,13.458-30,30v618c0,16.542,13.458,30,30,30h968c16.542,0,30-13.458,30-30
		V92C1113,75.458,1099.542,62,1083,62L1083,62z"/>
</g>
<g id="Potrebščine">
	<g>
		<path fill="#F6921E" d="M117.616,273.165c0.464,6.179-4.398,11.586-10.875,12.088l-27.13,2.056
			c-6.49,0.496-12.111-4.102-12.588-10.29L51.388,71.408c-0.478-6.172,4.392-11.573,10.886-12.083l27.127-2.058
			c6.481-0.484,12.109,4.117,12.587,10.288L117.616,273.165z"/>
		<polygon fill="#231F20" points="77.243,272.758 66.764,273.554 66.647,272.068 77.137,271.281 		"/>
		<polygon fill="#231F20" points="75.748,253.019 65.258,253.807 65.14,252.322 75.649,251.528 		"/>
		<polygon fill="#231F20" points="74.253,233.279 63.75,234.061 63.646,232.582 74.141,231.782 		"/>
		<polygon fill="#231F20" points="72.752,213.52 62.256,214.32 62.144,212.84 72.634,212.052 		"/>
		<polygon fill="#231F20" points="71.244,193.789 60.761,194.58 60.643,193.095 71.132,192.308 		"/>
		<polygon fill="#231F20" points="69.743,174.046 59.253,174.833 59.142,173.352 69.626,172.561 		"/>
		<polygon fill="#231F20" points="68.242,154.302 57.753,155.091 57.641,153.61 68.132,152.806 		"/>
		
			<rect x="56.181" y="133.464" transform="matrix(0.9971 -0.0759 0.0759 0.9971 -10.0097 5.0507)" fill="#231F20" width="10.517" height="1.487"/>
		<polygon fill="#231F20" points="65.237,114.808 54.748,115.61 54.629,114.125 65.127,113.324 		"/>
		<polygon fill="#231F20" points="63.736,95.063 53.241,95.865 53.135,94.386 63.625,93.581 		"/>
		<polygon fill="#231F20" points="62.236,75.319 51.746,76.124 51.628,74.638 62.124,73.839 		"/>
		
			<text transform="matrix(-0.0758 -0.9971 0.9971 -0.0758 92.8127 274.1861)" fill="#231F20" font-family="'PatrickHand-Regular'" font-size="14.8507">0   1   2   3   4   5   6   7   8   9   10</text>
	</g>
	<g>
		<polygon fill="#C6E9FA" points="999.002,72.804 1090.201,17.045 1145.951,108.244 		"/>
		<polygon fill="#004978" points="1027.521,59.879 1126.453,83.75 1126.135,83.234 1028.027,59.573 		"/>
		<polygon fill="#231F20" points="1017.42,65.962 1132.239,93.668 1131.852,93.132 1017.989,65.667 		"/>
		<polygon fill="#004978" points="1037.823,53.592 1120.159,73.454 1119.84,72.938 1038.335,53.279 		"/>
		<polygon fill="#004978" points="1048.122,47.295 1113.854,63.149 1113.549,62.638 1048.634,46.981 		"/>
		<polygon fill="#004978" points="1058.423,40.995 1107.558,52.846 1107.246,52.335 1058.935,40.681 		"/>
		<polygon fill="#004978" points="1068.722,34.698 1101.264,42.549 1100.953,42.039 1069.232,34.385 		"/>
		<polygon fill="#004978" points="1079.022,28.398 1094.968,32.246 1094.653,31.733 1079.535,28.084 		"/>
		
			<line fill="#004978" stroke="#231F20" stroke-width="0.05" stroke-miterlimit="10" x1="1088.501" y1="24.083" x2="1075.008" y2="79.989"/>
		<polygon fill="#231F20" points="1074,82.182 1074.553,79.875 1075.171,80.026 1074.614,82.334 		"/>
		<polygon fill="#231F20" points="1082.232,84.188 1082.79,81.876 1083.412,82.032 1082.854,84.344 		"/>
		<polygon fill="#231F20" points="1090.462,86.197 1091.026,83.892 1091.64,84.045 1091.081,86.345 		"/>
		<polygon fill="#231F20" points="1098.698,88.205 1099.246,85.895 1099.863,86.044 1099.301,88.348 		"/>
		<polygon fill="#231F20" points="1106.921,90.209 1107.487,87.902 1108.102,88.058 1107.54,90.358 		"/>
		<polygon fill="#231F20" points="1115.144,92.214 1115.705,89.914 1116.339,90.072 1115.76,92.366 		"/>
		<polygon fill="#231F20" points="1123.383,94.224 1123.946,91.92 1124.562,92.076 1124,94.377 		"/>
		<polygon fill="#231F20" points="1131.617,96.241 1132.168,93.928 1132.801,94.087 1132.234,96.394 		"/>
		
			<text transform="matrix(0.9715 0.237 -0.237 0.9715 1070.7074 88.6277)" fill="#F27321" font-family="'PatrickHand-Regular'" font-size="6.3535">0   1   2   3   4   5   6   7   </text>
		<polygon fill="#231F20" points="1016.86,68.275 1017.42,65.962 1018.032,66.122 1017.47,68.423 		"/>
		<polygon fill="#231F20" points="1025.09,70.273 1025.649,67.971 1026.271,68.118 1025.707,70.436 		"/>
		<polygon fill="#231F20" points="1033.32,72.283 1033.882,69.982 1034.495,70.134 1033.942,72.438 		"/>
		<polygon fill="#231F20" points="1041.558,74.297 1042.104,71.986 1042.73,72.136 1042.162,74.452 		"/>
		<polygon fill="#231F20" points="1049.786,76.305 1050.342,74 1050.962,74.146 1050.403,76.458 		"/>
		<polygon fill="#231F20" points="1058.01,78.311 1058.571,76.009 1059.191,76.156 1058.614,78.464 		"/>
		<polygon fill="#231F20" points="1066.24,80.319 1066.794,78.014 1067.415,78.161 1066.861,80.464 		"/>
		<polygon fill="#231F20" points="1074.469,82.328 1075.024,80.023 1075.651,80.174 1075.086,82.481 		"/>
		
			<text transform="matrix(0.9715 0.237 -0.237 0.9715 1013.5687 74.7525)" fill="#F27321" font-family="'PatrickHand-Regular'" font-size="6.3535">7   6   5   4   3   2   1   </text>
		<path fill="none" stroke="#F27321" stroke-width="0.05" stroke-miterlimit="10" d="M1043.624,71.85
			c4.238-17.595,21.942-28.414,39.528-24.17c17.596,4.245,28.418,21.949,24.167,39.532"/>
		<path fill="none" stroke="#F27321" stroke-width="0.05" stroke-miterlimit="10" d="M1034.267,71.805
			c5.461-22.659,28.262-36.589,50.912-31.126c22.66,5.463,36.585,28.258,31.126,50.913"/>
	</g>
	<g>
		
			<linearGradient id="SVGID_1_" gradientUnits="userSpaceOnUse" x1="739.9671" y1="583.6426" x2="743.8175" y2="584.1926" gradientTransform="matrix(-0.1184 -0.993 0.993 -0.1184 445.9332 884.1006)">
			<stop  offset="0" style="stop-color:#988775"/>
			<stop  offset="1" style="stop-color:#B19B88"/>
		</linearGradient>
		<polygon fill="url(#SVGID_1_)" points="952.732,81.064 921.436,76.472 954.518,75.434 		"/>
		
			<linearGradient id="SVGID_2_" gradientUnits="userSpaceOnUse" x1="747.4363" y1="584.3233" x2="753.2516" y2="583.3541" gradientTransform="matrix(-0.1184 -0.993 0.993 -0.1184 445.9332 884.1006)">
			<stop  offset="0" style="stop-color:#FDDBC4"/>
			<stop  offset="1" style="stop-color:#FDDBC4"/>
		</linearGradient>
		<polygon fill="url(#SVGID_2_)" points="950.993,63.685 921.436,76.472 953.953,69.125 		"/>
		
			<linearGradient id="SVGID_3_" gradientUnits="userSpaceOnUse" x1="748.7771" y1="584.1119" x2="744.0677" y2="583.9437" gradientTransform="matrix(-0.1184 -0.993 0.993 -0.1184 445.9332 884.1006)">
			<stop  offset="0" style="stop-color:#DDC0A9"/>
			<stop  offset="1" style="stop-color:#CDB29F"/>
		</linearGradient>
		<polygon fill="url(#SVGID_3_)" points="953.953,75.808 953.099,68.682 921.436,76.472 		"/>
		<polygon fill="#EC7F23" points="1034.84,58.665 1035.74,66.142 953.953,75.808 953.099,68.682 		"/>
		<polygon fill="#FDBB24" points="1032.414,53.813 1034.84,58.802 953.099,68.682 950.993,63.685 		"/>
		<polygon fill="#C35628" points="1034.55,71.383 1035.726,65.974 953.953,75.808 952.732,81.064 		"/>
		<polygon fill="#EC7F23" points="936.787,69.88 921.436,76.472 938.023,78.822 		"/>
		<polygon fill="#FDBB24" points="936.787,69.88 921.436,76.472 937.275,72.642 		"/>
		<polygon fill="#C35628" points="937.748,76.136 921.436,76.472 938.023,78.822 		"/>
	</g>
	<g>
		
			<linearGradient id="SVGID_4_" gradientUnits="userSpaceOnUse" x1="-30.4239" y1="-479.1038" x2="-26.5877" y2="-478.5558" gradientTransform="matrix(-0.0897 -0.9959 -0.9959 0.0897 -171.2704 749.7883)">
			<stop  offset="0" style="stop-color:#988775"/>
			<stop  offset="1" style="stop-color:#B19B88"/>
		</linearGradient>
		<polygon fill="url(#SVGID_4_)" points="294.218,741.026 323.916,730.046 291.328,735.904 		"/>
		
			<linearGradient id="SVGID_5_" gradientUnits="userSpaceOnUse" x1="-22.9495" y1="-478.4309" x2="-17.1538" y2="-479.3969" gradientTransform="matrix(-0.0897 -0.9959 -0.9959 0.0897 -171.2704 749.7883)">
			<stop  offset="0" style="stop-color:#FDDBC4"/>
			<stop  offset="1" style="stop-color:#FDDBC4"/>
		</linearGradient>
		<polygon fill="url(#SVGID_5_)" points="292.357,723.672 323.916,730.046 290.586,729.585 		"/>
		
			<linearGradient id="SVGID_6_" gradientUnits="userSpaceOnUse" x1="-21.6051" y1="-478.638" x2="-26.3199" y2="-478.8064" gradientTransform="matrix(-0.0897 -0.9959 -0.9959 0.0897 -171.2704 749.7883)">
			<stop  offset="0" style="stop-color:#DDC0A9"/>
			<stop  offset="1" style="stop-color:#CDB29F"/>
		</linearGradient>
		<polygon fill="url(#SVGID_6_)" points="291.961,736.131 291.338,728.973 323.916,730.046 		"/>
		<polygon fill="#FDCB07" points="139.113,742.417 139.782,749.922 291.961,736.131 291.338,728.973 		"/>
		<polygon fill="#FBED25" points="140.497,737.178 139.167,742.567 291.338,728.973 292.357,723.672 		"/>
		<polygon fill="#FAAB20" points="142.038,754.817 139.756,749.761 291.961,736.131 294.218,741.026 		"/>
		<polygon fill="#FDCB07" points="307.539,726.799 323.916,730.046 308.189,735.78 		"/>
		<polygon fill="#FBED25" points="307.539,726.799 323.916,730.046 307.625,729.592 		"/>
		<polygon fill="#FAAB20" points="307.899,733.094 323.916,730.046 308.189,735.78 		"/>
	</g>
	<g>
		<g>
			
				<linearGradient id="SVGID_7_" gradientUnits="userSpaceOnUse" x1="-86.4119" y1="-933.2834" x2="-82.5639" y2="-932.7337" gradientTransform="matrix(-0.1784 -0.984 -0.984 0.1784 117.2966 809.0345)">
				<stop  offset="0" style="stop-color:#988775"/>
				<stop  offset="1" style="stop-color:#B19B88"/>
			</linearGradient>
			<polygon fill="url(#SVGID_7_)" points="1037.092,732.752 1065.687,719.156 1033.75,727.892 			"/>
			
				<linearGradient id="SVGID_8_" gradientUnits="userSpaceOnUse" x1="-78.9461" y1="-932.6098" x2="-73.1404" y2="-933.5774" gradientTransform="matrix(-0.1784 -0.984 -0.984 0.1784 117.2966 809.0345)">
				<stop  offset="0" style="stop-color:#FDDBC4"/>
				<stop  offset="1" style="stop-color:#FDDBC4"/>
			</linearGradient>
			<polygon fill="url(#SVGID_8_)" points="1033.674,715.631 1065.687,719.156 1032.453,721.69 			"/>
			
				<linearGradient id="SVGID_9_" gradientUnits="userSpaceOnUse" x1="-77.5984" y1="-932.8181" x2="-82.3075" y2="-932.9863" gradientTransform="matrix(-0.1784 -0.984 -0.984 0.1784 117.2966 809.0345)">
				<stop  offset="0" style="stop-color:#DDC0A9"/>
				<stop  offset="1" style="stop-color:#CDB29F"/>
			</linearGradient>
			<polygon fill="url(#SVGID_9_)" points="1034.406,728.074 1033.14,721.01 1065.687,719.156 			"/>
			<polygon fill="#36A148" points="906.179,743.768 907.521,751.168 1034.406,728.074 1033.14,721.01 			"/>
			<polygon fill="#4EB750" points="907.095,738.412 906.24,743.898 1033.14,721.01 1033.674,715.631 			"/>
			<polygon fill="#338641" points="910.207,755.846 907.491,751.001 1034.406,728.074 1037.092,732.752 			"/>
			<polygon fill="#36A148" points="1049.07,717.378 1065.687,719.156 1050.535,726.266 			"/>
			<polygon fill="#4EB750" points="1049.07,717.378 1065.687,719.156 1049.421,720.155 			"/>
			<polygon fill="#338641" points="1050,723.627 1065.687,719.156 1050.535,726.266 			"/>
		</g>
		<g>
			
				<linearGradient id="SVGID_10_" gradientUnits="userSpaceOnUse" x1="992.067" y1="1488.8047" x2="995.9154" y2="1489.3544" gradientTransform="matrix(-0.1173 0.9931 0.9931 0.1173 -359.3199 -433.457)">
				<stop  offset="0" style="stop-color:#988775"/>
				<stop  offset="1" style="stop-color:#B19B88"/>
			</linearGradient>
			<polygon fill="url(#SVGID_10_)" points="1017.721,725.53 986.408,730.177 1019.484,731.156 			"/>
			
				<linearGradient id="SVGID_11_" gradientUnits="userSpaceOnUse" x1="999.5573" y1="1489.4879" x2="1005.343" y2="1488.5237" gradientTransform="matrix(-0.1173 0.9931 0.9931 0.1173 -359.3199 -433.457)">
				<stop  offset="0" style="stop-color:#FDDBC4"/>
				<stop  offset="1" style="stop-color:#FDDBC4"/>
			</linearGradient>
			<polygon fill="url(#SVGID_11_)" points="1015.961,742.902 986.408,730.177 1018.926,737.495 			"/>
			
				<linearGradient id="SVGID_12_" gradientUnits="userSpaceOnUse" x1="1000.8915" y1="1489.2814" x2="996.1867" y2="1489.1134" gradientTransform="matrix(-0.1173 0.9931 0.9931 0.1173 -359.3199 -433.457)">
				<stop  offset="0" style="stop-color:#DDC0A9"/>
				<stop  offset="1" style="stop-color:#CDB29F"/>
			</linearGradient>
			<polygon fill="url(#SVGID_12_)" points="1018.93,730.807 1018.065,737.925 986.408,730.177 			"/>
			<polygon fill="#C8539C" points="1127.605,751.137 1128.496,743.669 1018.93,730.807 1018.065,737.925 			"/>
			<polygon fill="#DE7BAF" points="1125.174,755.975 1127.587,750.975 1018.065,737.925 1015.961,742.902 			"/>
			<polygon fill="#B63091" points="1127.288,738.394 1128.469,743.835 1018.93,730.807 1017.721,725.53 			"/>
			<polygon fill="#C8539C" points="1001.75,736.746 986.408,730.177 1002.971,727.817 			"/>
			<polygon fill="#DE7BAF" points="1001.75,736.746 986.408,730.177 1002.242,733.982 			"/>
			<polygon fill="#B63091" points="1002.699,730.498 986.408,730.177 1002.971,727.817 			"/>
		</g>
		<g>
			
				<linearGradient id="SVGID_13_" gradientUnits="userSpaceOnUse" x1="-126.4906" y1="864.6507" x2="-122.651" y2="865.1992" gradientTransform="matrix(-1 -0.0018 -0.0018 1 996.3776 -217.6365)">
				<stop  offset="0" style="stop-color:#988775"/>
				<stop  offset="1" style="stop-color:#B19B88"/>
			</linearGradient>
			<polygon fill="url(#SVGID_13_)" points="1123.895,661.919 1115.683,631.354 1118.522,664.317 			"/>
			
				<linearGradient id="SVGID_14_" gradientUnits="userSpaceOnUse" x1="-119.016" y1="865.33" x2="-113.2184" y2="864.3637" gradientTransform="matrix(-1 -0.0018 -0.0018 1 996.3776 -217.6365)">
				<stop  offset="0" style="stop-color:#FDDBC4"/>
				<stop  offset="1" style="stop-color:#FDDBC4"/>
			</linearGradient>
			<polygon fill="url(#SVGID_14_)" points="1106.438,662.203 1115.683,631.354 1112.169,664.492 			"/>
			
				<linearGradient id="SVGID_15_" gradientUnits="userSpaceOnUse" x1="-117.6884" y1="865.1265" x2="-122.3937" y2="864.9584" gradientTransform="matrix(-1 -0.0018 -0.0018 1 996.3776 -217.6365)">
				<stop  offset="0" style="stop-color:#DDC0A9"/>
				<stop  offset="1" style="stop-color:#CDB29F"/>
			</linearGradient>
			<polygon fill="url(#SVGID_15_)" points="1118.817,663.729 1111.646,663.702 1115.683,631.354 			"/>
			<polygon fill="#1D77BC" points="1111.235,736.747 1118.754,736.759 1118.817,663.729 1111.646,663.702 			"/>
			<polygon fill="#4B91CD" points="1106.127,734.883 1111.378,736.715 1111.646,663.702 1106.438,662.203 			"/>
			<polygon fill="#415AA7" points="1123.839,734.962 1118.598,736.765 1118.817,663.729 1123.895,661.919 			"/>
			<polygon fill="#1D77BC" points="1110.926,647.368 1115.683,631.354 1119.938,647.545 			"/>
			<polygon fill="#4B91CD" points="1110.926,647.368 1115.683,631.354 1113.734,647.539 			"/>
			<polygon fill="#415AA7" points="1117.25,647.586 1115.683,631.354 1119.938,647.545 			"/>
		</g>
	</g>
	<g>
		<linearGradient id="SVGID_16_" gradientUnits="userSpaceOnUse" x1="1108.0841" y1="98.9873" x2="1111.9271" y2="99.5363">
			<stop  offset="0" style="stop-color:#988775"/>
			<stop  offset="1" style="stop-color:#B19B88"/>
		</linearGradient>
		<polygon fill="url(#SVGID_16_)" points="1105.475,113.66 1113.775,83.104 1110.846,116.078 		"/>
		<linearGradient id="SVGID_17_" gradientUnits="userSpaceOnUse" x1="1115.5811" y1="99.6651" x2="1121.3522" y2="98.7033">
			<stop  offset="0" style="stop-color:#FDDBC4"/>
			<stop  offset="1" style="stop-color:#FDDBC4"/>
		</linearGradient>
		<polygon fill="url(#SVGID_17_)" points="1122.931,113.972 1113.775,83.104 1117.224,116.253 		"/>
		<linearGradient id="SVGID_18_" gradientUnits="userSpaceOnUse" x1="1116.9087" y1="99.4587" x2="1112.2035" y2="99.2906">
			<stop  offset="0" style="stop-color:#DDC0A9"/>
			<stop  offset="1" style="stop-color:#CDB29F"/>
		</linearGradient>
		<polygon fill="url(#SVGID_18_)" points="1110.571,115.475 1117.742,115.46 1113.775,83.104 		"/>
		<polygon fill="#E14737" points="1118.017,165.723 1110.479,165.723 1110.571,115.475 1117.742,115.46 		"/>
		<polygon fill="#EC684C" points="1123.113,163.861 1117.864,165.677 1117.742,115.46 1122.931,113.972 		"/>
		<polygon fill="#D82128" points="1105.413,163.906 1110.662,165.723 1110.571,115.475 1105.475,113.66 		"/>
		<polygon fill="#E14737" points="1118.475,99.126 1113.775,83.104 1109.472,99.286 		"/>
		<polygon fill="#EC684C" points="1118.475,99.126 1113.775,83.104 1115.667,99.286 		"/>
		<polygon fill="#D82128" points="1112.157,99.331 1113.775,83.104 1109.472,99.286 		"/>
	</g>
	<g>
		<polygon fill="#7E8081" points="123.874,720.06 58.575,670.254 111.609,721.716 36.958,719.122 115.71,729.629 		"/>
		<path fill="#F16722" d="M118.205,725.231l13.601,6.374c0,0,27.712,10.298,26.125-11.077c-1.586-21.375-33.25-2.774-33.25-2.774
			L118.205,725.231z M133.828,721.187c0.381-3.831,5.168-6.503,10.716-5.96c5.529,0.542,9.713,4.096,9.333,7.927
			c-0.371,3.832-5.158,6.504-10.706,5.966C137.642,728.571,133.448,725.023,133.828,721.187z"/>
		<path fill="#F16722" d="M114.615,735.966c-0.204,16.894,10.298,22.952,15.048,23.991c4.75,1.021,11.077-2.616,14.213-13.703
			c3.136-11.086-22.062-20.484-22.062-20.484S114.828,719.063,114.615,735.966z M123.354,735.102
			c3.08-2.301,8.284-0.565,11.615,3.897c3.33,4.463,3.525,9.936,0.445,12.246c-3.09,2.311-8.294,0.566-11.615-3.887
			C120.46,742.896,120.265,737.413,123.354,735.102z"/>
		<path fill="#C5C7C9" d="M121.035,727.829c0,1.568,1.262,2.83,2.839,2.83c1.559,0,2.82-1.262,2.82-2.83
			c0-1.567-1.262-2.829-2.82-2.829C122.297,725,121.035,726.262,121.035,727.829z"/>
	</g>
	<g>
		<path fill="#AEB0B3" d="M887.668,74.092c0,0,2.61,8.594,19.639,0.75c0,0,4.597-0.798,7.936-0.846c0,0-6.49-2.337-7.898-3.95
			c-0.371-0.404,0,0,0,0s-13.681-9.796-19.03-1.614C882.979,76.633,887.668,74.092,887.668,74.092z"/>
		<path fill="#737477" d="M899.639,70.316c1.034,0.111,1.771,1.053,1.648,2.078c-0.11,1.034-1.031,1.767-2.067,1.646
			c-1.036-0.121-1.779-1.04-1.658-2.076C897.677,70.952,898.603,70.196,899.639,70.316z"/>
		<path fill="#737477" d="M897.513,72.304c0,0,13.3,1.62,16.852,1.384c0,0-14.699-1.796-16.781-1.882L897.513,72.304z"/>
		<path fill="#009047" d="M883.531,63.472c3.759,0.434,6.465,3.825,6.028,7.574l0,0c-0.434,3.759-3.824,6.465-7.582,6.041
			L799.623,66.24c-3.759-0.434-6.44-2.414-6.018-6.17l0,0c0.435-3.759,3.62-4.632,7.38-4.198L883.531,63.472z"/>
	</g>
	<g>
		<path fill="#C97E4F" d="M155.718,50.078h-22.193c-1.117,0-2.084,0.677-2.492,1.649l0,0l-16.693,16.081l25.416,19.642
			l16.844-16.806l-0.021-0.016c1.074-0.354,1.869-1.348,1.869-2.551V52.801C158.447,51.292,157.222,50.078,155.718,50.078z"/>
		<path fill="#B57147" d="M157.845,50.814l-19.723,19.014l1.633,17.623l16.844-16.806l-0.021-0.016
			c1.074-0.354,1.869-1.348,1.869-2.551V52.801C158.447,51.292,157.845,50.814,157.845,50.814z"/>
		<path fill="#8F5835" d="M140.915,85.221c0,1.515-1.225,2.729-2.707,2.729h-22.193c-1.525,0-2.729-1.214-2.729-2.729v-15.27
			c0-1.504,1.203-2.723,2.729-2.723h22.193c1.482,0,2.707,1.219,2.707,2.723V85.221z"/>
		<path fill="#432001" d="M134.126,77.589c0,4.292-3.502,7.756-7.777,7.756s-7.756-3.464-7.756-7.756
			c0-4.286,3.48-7.761,7.756-7.761S134.126,73.303,134.126,77.589z"/>
		<path fill="#7F4D2C" d="M120.656,67.228c0,0,12.096-12.977,13.471-13.02c1.354-0.048,8.852-5.441,13.879,0.833
			c0,0-7.648,7.514-12.525,12.187H120.656z"/>
		<path fill="#797B7D" d="M126.349,67.228c0,0,16.457-20.163,21.656-12.187L135.48,67.228H126.349z"/>
		<path fill="#A6A8AB" d="M140.915,59.118c0,0.575-1.246,1.053-2.793,1.053c-1.547,0-2.793-0.478-2.793-1.053
			c0-0.585,1.246-1.058,2.793-1.058C139.669,58.06,140.915,58.532,140.915,59.118z"/>
	</g>
	<g>
		<path fill="#007193" d="M259.511,68.82c4.19,0.87,7.111,3.835,6.531,6.623l0,0c-0.58,2.798-4.447,4.366-8.626,3.497l-55.72-11.564
			c-4.179-0.87-7.101-3.846-6.521-6.644l0,0c0.58-2.788,4.437-4.345,8.615-3.475L259.511,68.82z"/>
		<path fill="#00C1F2" d="M207.884,56.601c4.179,0.87,1.482,13.879-2.696,13.009l-32.645-6.773c-4.179-0.87-6.961-4.485-6.209-8.094
			l0,0c0.741-3.588,4.727-5.785,8.916-4.92L207.884,56.601z"/>
		<path fill="#00ADEE" d="M286.098,78.44c0.795,0.145,1.386,0.596,1.332,1.004l0,0c-0.064,0.403-0.763,0.607-1.568,0.463
			l-13.546-2.471c-0.806-0.145-1.397-0.607-1.332-1.01l0,0c0.064-0.408,0.763-0.612,1.558-0.467L286.098,78.44z"/>
		<path fill="#EEB53D" d="M173.273,51.16c0,0,10.871-4.05,44.881,6.048c0,0,1.493,3.142-4.383,1.262
			c-5.887-1.869-22.365-5.291-30.164-5.167C175.808,53.443,173.273,51.16,173.273,51.16z"/>
		<path fill="#D9DBDC" d="M260.209,79.278c0,0,16.951,3.014,23.439,0.827l0.505-2.406c0,0-3.373-4.361-21.946-8.078L260.209,79.278z
			"/>
	</g>
	<g>
		<path fill="#F6921E" d="M275.909,94.383c-4.136,1.074-8.357-1.396-9.421-5.543l0,0c-1.085-4.125,1.397-8.357,5.532-9.432
			l92.323-23.934c4.146-1.074,6.488,1.912,7.541,6.037l0,0c1.074,4.136,0.473,7.863-3.652,8.927L275.909,94.383z"/>
		<path fill="#F6921E" d="M252.373,94.791c-0.784,0.236-1.665-0.43-1.977-1.461l0,0c-0.311-1.053,0.054-2.105,0.849-2.32
			l13.202-3.932c0.784-0.236,1.665,0.43,1.966,1.482l0,0c0.322,1.031-0.064,2.084-0.838,2.32L252.373,94.791z"/>
		<path fill="#FFFFFF" d="M269.399,80.472c0,0-10.237,2.632-14.663,9.12l1.106,4.297c0,0,2.224,3.588,17.252,0.859
			C273.095,94.748,270.065,89.872,269.399,80.472z"/>
		<path fill="#D9DBDC" d="M370.359,69.891c-2.514,0.645-4.275-2.471-5.328-6.596l0,0c-1.074-4.125-1.053-7.724,1.439-8.368
			l-0.043,0.011c2.492-0.645,4.275,2.492,5.328,6.617l0,0c1.074,4.125,1.053,7.691-1.439,8.336"/>
		<path fill="#FFFFFF" d="M340.002,79c-4.147,1.063-8.615-16.21-4.49-17.273l32.27-8.379c4.146-1.074,8.486,1.934,9.732,6.703l0,0
			c1.225,4.77-1.117,9.496-5.264,10.57L340.002,79z"/>
		<path fill="#F1F1F2" d="M337.703,71.352c-0.494,0.107-0.967-0.15-1.096-0.602l0,0c-0.107-0.473,0.172-0.924,0.666-1.053
			l31.346-8.121c0.473-0.129,0.945,0.129,1.074,0.602l0,0c0.107,0.451-0.172,0.913-0.645,1.031L337.703,71.352z"/>
		<path fill="#F1F1F2" d="M340.754,74.918c-0.451,0.107-0.945-0.172-1.053-0.623l0,0c-0.129-0.473,0.172-0.924,0.623-1.053
			l30.121-7.81c0.473-0.118,0.924,0.14,1.053,0.612l0,0c0.108,0.451-0.15,0.924-0.623,1.053L340.754,74.918z"/>
		<path fill="#F1F1F2" d="M337.832,66.754c-0.473,0.129-0.924-0.161-1.053-0.612l0,0c-0.107-0.462,0.15-0.935,0.623-1.053
			l30.143-7.81c0.451-0.118,0.924,0.15,1.031,0.623l0,0c0.129,0.451-0.15,0.924-0.602,1.031L337.832,66.754z"/>
		<path fill="#F1F1F2" d="M340.002,75.112c-0.473,0.107-0.945-0.172-1.053-0.623l0,0c-0.107-0.473,0.15-0.924,0.623-1.053
			l30.142-7.81c0.451-0.118,0.902,0.15,1.031,0.623l0,0c0.107,0.44-0.15,0.924-0.623,1.042L340.002,75.112z"/>
		<path fill="#F1F1F2" d="M341.549,78.012c-0.451,0.129-0.859,0.086-0.902-0.086l0,0c-0.043-0.172,0.301-0.408,0.752-0.537
			l30.143-7.799c0.451-0.129,0.859-0.075,0.902,0.086l0,0c0.043,0.172-0.279,0.408-0.752,0.537L341.549,78.012z"/>
		<path fill="#F1F1F2" d="M337.574,62.619c-0.473,0.118-0.902-0.021-0.988-0.333l0,0c-0.086-0.29,0.236-0.644,0.688-0.752
			l30.143-7.82c0.451-0.118,0.902,0.032,0.967,0.344l0,0c0.086,0.301-0.215,0.623-0.688,0.752L337.574,62.619z"/>
	</g>
	<g>
		<path fill="#231F20" d="M99.788,687.471c0.555,5.634-4.217,7.419-9.874,7.967l0,0c-5.626,0.551-9.999-0.308-10.562-5.949
			l-1.146-11.644c-0.548-5.656,3.574-10.679,9.202-11.227l0,0c5.641-0.563,10.683,3.552,11.225,9.2L99.788,687.471z"/>
		<path fill="#FFF100" d="M56.22,594.184c0,0,16.252,71.26,15.761,75.271c-0.479,3.996,20.111,12.059,31.99-3.162
			c0,0-7.006-68.655-0.786-76.75L56.22,594.184z"/>
		<path fill="#E6D500" d="M105.37,585.808c0.217,2.241-2.105,4.298-5.165,4.605l-40.896,4.034c-3.08,0.314-5.751-1.259-5.961-3.493
			l0,0c-0.231-2.229,2.082-4.294,5.164-4.607l40.882-4.021C102.475,582.013,105.146,583.585,105.37,585.808L105.37,585.808z"/>
		<g>
			<path fill="#231F20" d="M80.844,663.195l-0.388-3.327l8.155-0.944l-0.6-5.219l2.661-0.297l0.978,8.563L80.844,663.195z"/>
			<path fill="#231F20" d="M79.602,652.369l-1.02-8.945l2.308-0.268l0.642,5.604l1.709-0.195l-0.579-5.199l2.204-0.253l0.587,5.207
				l2.125-0.243l-0.643-5.779l2.445-0.277l1.042,9.113L79.602,652.369z"/>
			<path fill="#231F20" d="M78.272,640.718l-0.641-5.546c-0.131-1.214,0.054-2.152,0.552-2.811c0.506-0.679,1.304-1.073,2.36-1.188
				c1.093-0.136,1.979,0.098,2.674,0.691c0.688,0.585,1.113,1.543,1.267,2.896l0.206,1.828l4.013-0.463l0.389,3.355L78.272,640.718z
				 M82.505,636.836l-0.105-0.819c-0.072-0.644-0.23-1.083-0.496-1.31c-0.248-0.243-0.545-0.334-0.886-0.294
				c-0.348,0.032-0.635,0.183-0.827,0.423c-0.208,0.256-0.289,0.691-0.222,1.328l0.12,0.948L82.505,636.836z"/>
			<path fill="#231F20" d="M76.923,628.901l-0.383-3.349l10.818-1.237l0.382,3.349L76.923,628.901z"/>
			<path fill="#231F20" d="M76.173,622.393l-0.374-3.341l8.148-0.921l-0.595-5.214l2.67-0.316l0.969,8.554L76.173,622.393z"/>
			<path fill="#231F20" d="M80.426,611.636c-1.756,0.202-3.188-0.133-4.284-1.005c-1.098-0.869-1.753-2.193-1.94-3.951
				c-0.203-1.799,0.111-3.237,0.966-4.32c0.855-1.082,2.158-1.729,3.895-1.926c1.277-0.152,2.322-0.05,3.19,0.281
				c0.852,0.342,1.553,0.884,2.106,1.623c0.538,0.753,0.867,1.734,1.015,2.934c0.138,1.224,0.057,2.26-0.236,3.089
				c-0.3,0.852-0.849,1.575-1.634,2.156C82.715,611.122,81.692,611.499,80.426,611.636z M80.066,608.28
				c1.084-0.115,1.863-0.416,2.278-0.869c0.435-0.461,0.608-1.035,0.534-1.737c-0.088-0.716-0.377-1.256-0.895-1.59
				c-0.498-0.341-1.369-0.445-2.577-0.307c-1.019,0.121-1.741,0.42-2.162,0.866c-0.42,0.475-0.596,1.049-0.521,1.752
				c0.081,0.679,0.377,1.197,0.911,1.546C78.155,608.304,78.967,608.41,80.066,608.28z"/>
		</g>
	</g>
</g>
</svg>
